<svg height="512pt" viewBox="-20 0 512 512" width="512pt" xmlns="http://www.w3.org/2000/svg">
	<path d="m217 260.84375v-240.84375c0-11.046875-8.953125-20-20-20h-118c-11.046875 0-20 8.953125-20 20v240.84375c-36.660156 25.667969-59 68.011719-59 113.15625 0 76.09375 61.90625 138 138 138s138-61.90625 138-138c0-45.144531-22.339844-87.488281-59-113.15625zm-79 211.15625c-54.035156 0-98-43.964844-98-98 0-34.878906 18.78125-67.40625 49.015625-84.898438 6.179687-3.574218 9.984375-10.171874 9.984375-17.3125v-231.789062h78v231.789062c0 7.140626 3.804688 13.738282 9.984375 17.3125 30.234375 17.492188 49.015625 50.019532 49.015625 84.898438 0 54.035156-43.964844 98-98 98zm0-168c-38.597656 0-70 31.402344-70 70s31.402344 70 70 70 70-31.402344 70-70-31.402344-70-70-70zm0 100c-16.542969 0-30-13.457031-30-30s13.457031-30 30-30 30 13.457031 30 30-13.457031 30-30 30zm178-384c0-11.046875 8.953125-20 20-20h116c11.046875 0 20 8.953125 20 20s-8.953125 20-20 20h-116c-11.046875 0-20-8.953125-20-20zm0 118c0-11.046875 8.953125-20 20-20h80c11.046875 0 20 8.953125 20 20s-8.953125 20-20 20h-80c-11.046875 0-20-8.953125-20-20zm156 118c0 11.046875-8.953125 20-20 20h-116c-11.046875 0-20-8.953125-20-20s8.953125-20 20-20h116c11.046875 0 20 8.953125 20 20zm-36 118c0 11.046875-8.953125 20-20 20h-80c-11.046875 0-20-8.953125-20-20s8.953125-20 20-20h80c11.046875 0 20 8.953125 20 20zm0 0"/>
</svg>
