<?xml version="1.0" encoding="iso-8859-1"?>
<!-- Generator: Adobe Illustrator 19.0.0, SVG Export Plug-In . SVG Version: 6.00 Build 0)  -->
<svg version="1.1" id="Capa_1" xmlns="http://www.w3.org/2000/svg" xmlns:xlink="http://www.w3.org/1999/xlink" x="0px" y="0px"
	 viewBox="0 0 329.021 329.021" style="enable-background:new 0 0 329.021 329.021;" xml:space="preserve">
<g id="XMLID_1521_">
	<rect id="XMLID_1597_" x="54.583" y="249.021" width="30" height="20"/>
	<rect id="XMLID_1610_" x="114.583" y="249.021" width="30" height="20"/>
	<rect id="XMLID_1611_" x="194.583" y="249.021" width="60" height="20"/>
	<path id="XMLID_1614_" d="M245.417,106.323c5.972-3.459,10-9.904,10-17.302c0-11.046-8.954-20-20-20s-20,8.954-20,20
		c0,7.398,4.028,13.843,10,17.302v92.698H4.583v130h300v-130h-59.167V106.323z M284.583,309.021h-260v-90h260V309.021z"/>
	<path id="XMLID_1615_" d="M235.417,35.918c-29.28,0-53.102,23.821-53.102,53.102h20c0-18.252,14.85-33.102,33.102-33.102
		c18.253,0,33.103,14.85,33.103,33.102h20C288.519,59.74,264.698,35.918,235.417,35.918z"/>
	<path id="XMLID_1636_" d="M235.417,20c38.058,0,69.021,30.962,69.021,69.021h20C324.437,39.935,284.502,0,235.417,0
		s-89.021,39.935-89.021,89.021h20C166.396,50.962,197.359,20,235.417,20z"/>
</g>
<g>
</g>
<g>
</g>
<g>
</g>
<g>
</g>
<g>
</g>
<g>
</g>
<g>
</g>
<g>
</g>
<g>
</g>
<g>
</g>
<g>
</g>
<g>
</g>
<g>
</g>
<g>
</g>
<g>
</g>
</svg>
