<?xml version="1.0" encoding="iso-8859-1"?>
<!-- Generator: Adobe Illustrator 19.0.0, SVG Export Plug-In . SVG Version: 6.00 Build 0)  -->
<svg xmlns:xlink="http://www.w3.org/1999/xlink" xmlns="http://www.w3.org/2000/svg" version="1.1" id="Layer_1" x="0px"
	 y="0px" viewBox="0 0 502 502" style="enable-background:new 0 0 502 502;" xml:space="preserve" width="512"
	 height="512">
<g>
	<path d="M426.88,113.13l14.03-14.03c5.874-5.895,5.854-15.46-0.08-21.29C391.625,29.305,324.347,0,251,0   C177.682,0,110.383,29.297,61.17,77.81c-5.936,5.832-5.952,15.398-0.08,21.29l14.02,14.02c-36.806,41.4-58.32,96.067-58.32,154.67   c0,61.354,23.54,120.563,68.59,165.61h0.01c0.07,0.08,0.14,0.14,0.21,0.2C129.82,477.72,188.55,502,251,502   c129.468,0,234.21-104.771,234.21-234.21C485.21,209.313,463.665,154.207,426.88,113.13z M251,472   c-49.51,0-96.34-17.5-133.41-49.59l31.32-31.32c27.73,23.01,63.32,36.85,102.09,36.85s74.36-13.84,102.09-36.85l31.32,31.32   C347.34,454.5,300.51,472,251,472z M381.16,267.79c0,71.837-58.445,130.15-130.16,130.15c-71.694,0-130.15-58.281-130.15-130.15   c0-71.926,58.535-130.16,130.15-130.16C322.874,137.63,381.16,196.139,381.16,267.79z M408.67,88.91   c-11.388,11.388-53.206,53.206-55.57,55.57h-0.01c-12.13-10.07-25.76-18.37-40.5-24.53c0.312-1.004,21.041-67.822,23.15-74.59   C362.32,55.39,387.12,70.2,408.67,88.91z M307.05,36.56c0,0-23.061,74.323-23.11,74.48c-5.87-1.24-11.85-2.15-17.94-2.71V70.3   c0-8.234-6.671-15-15-15c-7.759,0-15,6.177-15,15v38.03c-6.09,0.56-12.07,1.47-17.94,2.71c-0.049-0.157-23.11-74.48-23.11-74.48   C230.419,28.052,269.629,27.584,307.05,36.56z M189.41,119.95c-14.74,6.16-28.37,14.47-40.5,24.53   c-2.649-2.648-55.501-55.491-55.58-55.57c21.55-18.71,46.35-33.52,72.93-43.55C168.361,52.102,188.97,118.534,189.41,119.95z    M96.21,134.57c0.06-0.06,0.11-0.12,0.17-0.18c21.857,21.857,18.611,18.611,31.31,31.31c-23,27.74-36.84,63.33-36.84,102.09   s13.84,74.35,36.85,102.08L96.37,401.2c-33.102-38.373-49.58-84.991-49.58-133.41C46.79,220.323,62.464,174.439,96.21,134.57z    M405.63,401.2l-31.32-31.32c23.01-27.73,36.85-63.33,36.85-102.09s-13.84-74.35-36.85-102.09l31.31-31.31   c25.202,25.15,49.59,77.892,49.59,133.4C455.21,315.175,439.285,362.187,405.63,401.2z"/>
	<path d="M245.69,288.2c-2.185-3.14-5.482-4.92-10.18-4.92c-20.317,0-28.466,0-37.74,0c-6.35,0-11.5,5.15-11.5,11.5   c0,6.424,5.241,11.5,11.5,11.5c14.335,0,7.694,0,21.99,0c-19.309,52.423-5.23,14.229-17.29,46.95c-2.2,5.96,0.85,12.57,6.81,14.76   c5.868,2.195,12.554-0.783,14.77-6.81l23-62.43C248.385,295.118,247.774,291.178,245.69,288.2z"/>
	<path d="M289.49,306.28h14.74c6.269,0,11.5-5.085,11.5-11.5c0-6.35-5.15-11.5-11.5-11.5c-37.259,0-35.268-0.164-37.33,0.41   c-4.43,1.2-7.83,4.99-8.39,9.74c-0.427,3.68,0.118-0.951-3.68,31.21c-0.817,6.848,4.561,12.85,11.42,12.85h22.29   c2.31,0,4.19,1.84,4.19,4.11c0,2.26-1.88,4.1-4.19,4.1h-22.29c-6.35,0-11.5,5.15-11.5,11.5c0,6.35,5.15,11.5,11.5,11.5h22.29   c14.987,0,27.19-12.157,27.19-27.1c0-14.902-12.16-27.11-27.19-27.11h-9.36l0.97-8.21H289.49z"/>
	<path d="M293.13,269.95c8.29,0,15-6.72,15-15c0-17.228,0-28.282,0-45.19c0-4.1-1.68-8.02-4.64-10.85   c-0.29-0.276-31.114-29.699-42.13-40.22c-5.8-5.54-14.92-5.54-20.72,0c-3.392,3.24-40.682,38.843-42.13,40.22   c-2.96,2.83-4.64,6.75-4.64,10.85c0,16.898,0,27.971,0,45.19c0,8.28,6.71,15,15,15C225.929,269.95,274.04,269.95,293.13,269.95z    M251,190.27c20.311,19.397,11.146,10.634,27.13,25.91c0,8.795,0,15.683,0,23.77c-6.671,0-47.355,0-54.26,0   c0-8.19,0-14.961,0-23.77C240.019,200.747,229.64,210.668,251,190.27z"/>
</g>















</svg>
