<svg height="512pt" viewBox="0 0 512 512" width="512pt" xmlns="http://www.w3.org/2000/svg"><path d="m137.144531 201.144531c-5.050781 0-9.140625 4.09375-9.144531 9.140625v9.144532h18.285156v-9.144532c-.003906-5.046875-4.09375-9.140625-9.140625-9.140625zm0 0"/><path d="m192 109.714844c-5.046875.003906-9.140625 4.09375-9.144531 9.140625v36.574219c0 5.046874 4.09375 9.140624 9.144531 9.140624s9.144531-4.09375 9.144531-9.140624v-36.574219c-.003906-5.046875-4.097656-9.136719-9.144531-9.140625zm0 0"/><path d="m192 73.144531h-91.429688c-30.28125.03125-54.824218 24.574219-54.855468 54.855469v73.144531c.03125 30.28125 24.574218 54.820313 54.855468 54.855469h91.429688c30.28125-.035156 54.824219-24.574219 54.855469-54.855469v-73.144531c-.03125-30.28125-24.574219-54.824219-54.855469-54.855469zm-100.570312 109.710938c-15.144532-.015625-27.414063-12.285157-27.429688-27.425781v-36.574219c0-15.148438 12.28125-27.425781 27.429688-27.425781 15.148437 0 27.425781 12.277343 27.425781 27.425781v36.574219c-.015625 15.140624-12.285157 27.410156-27.425781 27.425781zm73.140624 45.714843c0 5.050782-4.09375 9.144532-9.140624 9.144532h-36.574219c-5.046875 0-9.140625-4.09375-9.140625-9.144532v-18.285156c0-15.148437 12.28125-27.429687 27.429687-27.429687 15.148438 0 27.425781 12.28125 27.425781 27.429687zm54.859376-73.140624c0 15.148437-12.28125 27.425781-27.429688 27.425781s-27.429688-12.277344-27.429688-27.425781v-36.574219c0-15.148438 12.28125-27.425781 27.429688-27.425781s27.429688 12.277343 27.429688 27.425781zm0 0"/><path d="m484.570312 242.285156c-.007812-7.570312-6.140624-13.707031-13.714843-13.714844h-68.570313v27.429688h68.570313c7.574219-.007812 13.707031-6.144531 13.714843-13.714844zm0 0"/><path d="m91.429688 109.714844c-5.050782.003906-9.140626 4.09375-9.144532 9.140625v36.574219c0 5.046874 4.09375 9.140624 9.144532 9.140624 5.046874 0 9.140624-4.09375 9.140624-9.140624v-36.574219c0-5.046875-4.09375-9.136719-9.140624-9.140625zm0 0"/><path d="m498.285156 374.855469h-96v27.429687h96c7.574219 0 13.714844-6.140625 13.714844-13.714844 0-7.574218-6.140625-13.714843-13.714844-13.714843zm0 0"/><path d="m274.285156 0h-237.714844c-20.1875.0195312-36.5507808 16.382812-36.570312 36.570312v438.859376c.0195312 20.1875 16.382812 36.550781 36.570312 36.570312h237.714844c20.191406-.019531 36.550782-16.382812 36.570313-36.570312v-438.859376c-.019531-20.1875-16.378907-36.5507808-36.570313-36.570312zm-117.910156 414.097656c-3.589844 3.550782-9.378906 3.519532-12.929688-.070312-3.507812-3.410156-9.097656-3.410156-12.605468 0-2.285156 2.375-5.675782 3.339844-8.867188 2.519531-3.195312-.824219-5.699218-3.300781-6.554687-6.484375s.070312-6.582031 2.421875-8.894531c10.761718-10.410157 27.84375-10.410157 38.605468 0 3.550782 3.589843 3.519532 9.378906-.070312 12.929687zm25.601562-25.855468c-3.589843 3.546874-9.378906 3.515624-12.929687-.070313-8.425781-8.53125-19.914063-13.332031-31.902344-13.332031s-23.476562 4.800781-31.902343 13.332031c-2.285157 2.375-5.671876 3.339844-8.867188 2.515625-3.191406-.820312-5.695312-3.296875-6.554688-6.480469-.855468-3.183593.070313-6.582031 2.421876-8.894531 11.855468-12 28.027343-18.757812 44.902343-18.757812 16.871094 0 33.042969 6.757812 44.898438 18.757812 3.550781 3.589844 3.519531 9.378906-.070313 12.929688zm25.597657-25.859376c-3.589844 3.550782-9.375 3.519532-12.925781-.070312-15.1875-15.375-35.894532-24.027344-57.5-24.027344-21.609376 0-42.316407 8.652344-57.503907 24.027344-3.566406 3.488281-9.273437 3.472656-12.820312-.035156-3.550781-3.507813-3.628907-9.214844-.175781-12.820313 18.617187-18.847656 44.003906-29.457031 70.5-29.457031 26.492187 0 51.878906 10.609375 70.496093 29.457031 3.550781 3.589844 3.515625 9.378907-.074219 12.925781zm57.570312-161.238281c-.046875 40.375-32.769531 73.09375-73.144531 73.140625h-91.429688c-40.375-.046875-73.09375-32.765625-73.140624-73.140625v-73.144531c.046874-40.375 32.765624-73.097656 73.140624-73.144531h91.429688c40.375.046875 73.097656 32.769531 73.144531 73.144531zm0 0"/><path d="m347.429688 0h-32.367188c9.058594 10.027344 14.078125 23.058594 14.082031 36.570312v438.859376c-.003906 13.511718-5.023437 26.542968-14.082031 36.570312h32.367188c20.1875-.019531 36.550781-16.382812 36.570312-36.570312v-438.859376c-.019531-20.1875-16.382812-36.5507808-36.570312-36.570312zm0 0"/></svg>